<?xml version="1.0" standalone="no"?>
<!DOCTYPE svg PUBLIC "-//W3C//DTD SVG 20010904//EN"
 "http://www.w3.org/TR/2001/REC-SVG-20010904/DTD/svg10.dtd">
<svg version="1.0" xmlns="http://www.w3.org/2000/svg"
 width="675.000000pt" height="675.000000pt" viewBox="0 0 675.000000 675.000000"
 preserveAspectRatio="xMidYMid meet">
<metadata>
Created by potrace 1.11, written by Peter Selinger 2001-2013
</metadata>
<g transform="translate(0.000000,675.000000) scale(0.100000,-0.100000)"
fill="#000000" stroke="none">
<path d="M1760 6740 c-406 -53 -696 -215 -881 -490 -128 -190 -221 -466 -245
-720 -3 -41 -8 -78 -10 -81 -19 -33 -29 -2596 -11 -2914 18 -332 30 -422 76
-582 60 -209 167 -391 317 -538 81 -80 96 -92 189 -151 219 -139 448 -201 743
-201 84 0 172 3 195 7 23 5 62 11 87 14 142 19 335 88 476 172 310 182 473
420 582 852 l38 147 -1 872 c0 652 -3 875 -12 884 -20 20 -41 2 -54 -43 -97
-357 -233 -583 -449 -747 -169 -128 -361 -194 -598 -206 -29 -1 -58 -7 -63
-12 -5 -5 -11 -117 -14 -249 -5 -241 -10 -386 -20 -524 -11 -153 -36 -193
-126 -199 -84 -6 -144 50 -176 165 -15 54 -17 191 -17 1634 -1 866 3 1622 7
1680 15 205 47 262 149 269 75 5 127 -40 164 -144 17 -45 19 -99 24 -497 3
-245 8 -450 13 -454 4 -4 257 -8 562 -8 532 0 555 -1 555 -18 0 -23 27 -35 42
-20 20 20 7 632 -17 812 -2 19 -9 76 -15 125 -36 297 -116 501 -277 703 -24
31 -152 156 -181 179 -13 10 -36 27 -50 39 -39 29 -181 114 -193 114 -5 0 -20
6 -32 14 -53 35 -224 88 -362 112 -49 9 -355 12 -415 4z"/>
<path d="M3413 6669 c-20 -20 -19 -6617 1 -6644 22 -30 41 -11 71 72 32 90 50
132 112 263 174 372 412 630 685 746 118 50 203 62 448 64 446 3 615 16 853
65 185 38 337 179 425 393 37 91 86 273 97 362 3 30 8 66 10 80 20 132 30
1054 13 1230 -23 241 -58 378 -131 513 -39 72 -142 205 -159 206 -5 1 -31 17
-58 37 -28 20 -93 55 -146 79 -98 44 -117 55 -95 55 25 0 157 63 223 107 82
54 150 128 190 208 35 69 66 155 74 204 3 18 8 43 10 55 24 111 24 619 0 766
-2 14 -7 50 -11 80 -46 394 -216 725 -453 880 -141 93 -274 132 -592 176 -25
4 -385 8 -800 11 -601 3 -758 2 -767 -8z m1401 -1024 c51 -24 84 -95 103 -220
4 -27 7 -185 7 -350 l0 -300 -26 -56 c-30 -66 -79 -115 -128 -129 -19 -5 -63
-10 -97 -10 l-63 0 0 546 0 546 85 -6 c47 -3 101 -12 119 -21z m-62 -2010
c115 -29 151 -72 165 -202 10 -90 10 -929 -1 -1018 -9 -82 -36 -151 -73 -182
-29 -25 -104 -49 -180 -56 l-53 -5 0 743 0 744 43 -5 c23 -3 68 -12 99 -19z"/>
</g>
</svg>
